<svg width="512" height="512" viewBox="0 0 512 512" fill="none" xmlns="http://www.w3.org/2000/svg">
<path d="M335.286 460.712H176.776C145.45 460.712 113.288 436.588 103.577 405.895L54.6042 250.384C44.8931 219.583 57.2147 180.597 82.5888 161.643L210.817 65.5794C236.191 46.5174 275.975 46.6251 301.349 65.5794L429.577 161.643C454.951 180.705 467.273 219.691 457.562 250.384L408.589 405.787C398.878 436.588 366.716 460.604 335.39 460.604L335.286 460.712Z" fill="#231916"/>
<path d="M335.286 462H176.776C144.928 462 112.14 437.446 102.324 406.214L53.3511 250.81C43.5356 219.579 55.9616 179.84 81.7534 160.562L209.981 64.4984C235.773 45.2211 276.184 45.1134 301.976 64.4984L305.213 66.9754L430.204 160.562C455.996 179.84 468.526 219.579 458.606 250.81L409.633 406.214C399.817 437.446 367.03 462 335.181 462H335.286ZM256.031 52.652C240.054 52.652 223.974 57.2829 211.548 66.6523L83.3197 162.716C58.3632 181.347 46.3549 219.687 55.8572 249.949L104.83 405.353C114.332 435.615 145.972 459.308 176.776 459.308H335.286C366.09 459.308 397.729 435.615 407.231 405.353L456.204 249.949C465.707 219.687 453.698 181.347 428.742 162.716L299.783 66.1139C287.461 57.0675 271.694 52.652 256.031 52.652Z" fill="#231916"/>
<path d="M408.17 191.8L279.942 95.7361C273.886 91.2129 265.114 88.5205 256.03 88.5205C246.945 88.5205 238.278 91.1052 232.117 95.7361L103.889 191.8C91.1501 201.385 84.2584 223.354 89.0617 238.755L138.035 394.158C142.943 409.667 161.007 423.236 176.775 423.236H335.285C351.052 423.236 369.221 409.667 374.025 394.158L422.998 238.755C427.905 223.247 420.909 201.277 408.17 191.8Z" fill="#FABE00"/>
<path d="M281.822 302.076L339.462 241.013C347.085 232.936 346.876 220.121 339.045 212.367C331.213 204.505 318.787 204.72 311.269 212.797L206.326 323.938V186.197C206.326 174.997 197.555 165.95 186.695 165.95C175.836 165.95 167.064 174.997 167.064 186.197V373.909C167.064 382.201 171.868 389.632 179.282 392.648C181.683 393.617 184.189 394.156 186.695 394.156C191.916 394.156 197.033 392.002 200.792 388.017L254.464 331.154L311.373 388.017C315.237 392.109 320.353 394.156 325.47 394.156C330.587 394.156 335.39 392.217 339.149 388.448C346.981 380.586 347.085 367.77 339.567 359.801L281.927 302.184L281.822 302.076Z" fill="#231916"/>
<path d="M252.376 374.125H230.761V396.418H252.376V374.125Z" fill="#231916"/>
<path d="M281.196 374.125H259.581V396.418H281.196V374.125Z" fill="#231916"/>
</svg>
